# xmcd
#
# Track frame offsets:
#	150
#	16842
#	33632
#	48410
#	59797
#	81161
#	95330
#	110825
#	123449
#	136240
#	150822
#	162522
#
# Disc length: 3869 seconds
#
# Revision: 0
# Processed by: cddbd v1.4PL0 Copyright (c) Steve Scherf et al.
# Submitted via: EasyCDDAExtractor 5.0.4.1
#
DISCID=9b0f1b0c
DTITLE=Shelly Streeter
DYEAR=1997
DGENRE=Country
TTITLE0=White Lace, Promises
TTITLE1=I Wanna Rock
TTITLE2=Hurricane
TTITLE3=Purple Bows
TTITLE4=Oh Mamacita
TTITLE5=Do You Love Me
TTITLE6=Call Me A Wild Fire
TTITLE7=Go Down Swingin'
TTITLE8=Broken Dreams
TTITLE9=Mama Done Told Me
TTITLE10=Data
TTITLE11=Data
EXTD=
EXTT0=
EXTT1=
EXTT2=
EXTT3=
EXTT4=
EXTT5=
EXTT6=
EXTT7=
EXTT8=
EXTT9=
EXTT10=
EXTT11=
PLAYORDER=
